<?xml version="1.0" standalone="no"?>
<!DOCTYPE svg PUBLIC "-//W3C//DTD SVG 20010904//EN"
 "http://www.w3.org/TR/2001/REC-SVG-20010904/DTD/svg10.dtd">
<svg version="1.0" xmlns="http://www.w3.org/2000/svg"
 width="512.000000pt" height="512.000000pt" viewBox="0 0 512.000000 512.000000"
 preserveAspectRatio="xMidYMid meet">
<metadata>
Created by potrace 1.11, written by Peter Selinger 2001-2013
</metadata>
<g transform="translate(0.000000,512.000000) scale(0.100000,-0.100000)"
fill="#000000" stroke="none">
<path d="M2315 5109 c-123 -9 -366 -57 -500 -99 -409 -126 -763 -339 -1064
-641 -529 -529 -793 -1233 -743 -1986 41 -620 300 -1190 743 -1632 529 -529
1233 -793 1987 -743 844 56 1597 523 2034 1263 462 781 462 1797 0 2578 -263
446 -639 793 -1102 1018 -412 200 -863 281 -1355 242z m240 -469 c293 -42 545
-198 703 -435 l52 -78 0 227 0 226 245 0 246 0 -3 -1467 c-4 -1637 -1 -1562
-74 -1816 -162 -562 -550 -840 -1220 -873 -299 -14 -682 40 -971 138 l-63 22
0 238 c0 131 4 238 8 238 5 0 37 -14 73 -31 277 -135 500 -188 788 -189 326 0
546 74 712 239 177 178 246 393 256 801 l5 215 -47 -69 c-102 -149 -259 -286
-405 -354 -248 -114 -602 -135 -875 -51 -185 57 -320 143 -466 297 -182 191
-293 412 -359 715 -78 354 -59 821 47 1142 88 268 263 522 463 669 126 93 320
174 465 195 85 12 337 12 420 1z"/>
<path d="M2365 4234 c-281 -41 -474 -177 -598 -419 -142 -280 -183 -722 -103
-1105 100 -472 377 -721 801 -721 279 0 477 97 633 312 187 258 256 719 177
1179 -45 258 -171 483 -345 618 -51 39 -186 100 -260 117 -75 16 -248 27 -305
19z"/>
</g>
</svg>
